<mxfile>
    <diagram id="JwIHQKfCfVIES1kNVGfX" name="Use Case">
        <mxGraphModel dx="1428" dy="1150" grid="1" gridSize="10" guides="1" tooltips="1" connect="1" arrows="1" fold="1" page="1" pageScale="1" pageWidth="827" pageHeight="1169" background="#FFFFFF" math="0" shadow="0">
            <root>
                <mxCell id="0"/>
                <mxCell id="1" parent="0"/>
                <mxCell id="3" value="User" style="shape=umlActor;verticalLabelPosition=bottom;verticalAlign=top;html=1;" parent="1" vertex="1">
                    <mxGeometry x="50" y="244" width="30" height="60" as="geometry"/>
                </mxCell>
                <mxCell id="4" value="Incident Management App - Ticketing System" style="shape=umlFrame;whiteSpace=wrap;html=1;width=280;height=30;" parent="1" vertex="1">
                    <mxGeometry x="120" y="50" width="600" height="440" as="geometry"/>
                </mxCell>
                <mxCell id="49" style="edgeStyle=orthogonalEdgeStyle;rounded=0;orthogonalLoop=1;jettySize=auto;html=1;" parent="1" source="5" target="14" edge="1">
                    <mxGeometry relative="1" as="geometry"/>
                </mxCell>
                <mxCell id="50" style="edgeStyle=orthogonalEdgeStyle;rounded=0;orthogonalLoop=1;jettySize=auto;html=1;entryX=0.5;entryY=0;entryDx=0;entryDy=0;exitX=0.5;exitY=1;exitDx=0;exitDy=0;" parent="1" source="5" target="13" edge="1">
                    <mxGeometry relative="1" as="geometry"/>
                </mxCell>
                <mxCell id="51" style="edgeStyle=orthogonalEdgeStyle;rounded=0;orthogonalLoop=1;jettySize=auto;html=1;exitX=0.5;exitY=1;exitDx=0;exitDy=0;" parent="1" source="5" target="16" edge="1">
                    <mxGeometry relative="1" as="geometry"/>
                </mxCell>
                <mxCell id="5" value="Authentication" style="ellipse;whiteSpace=wrap;html=1;" parent="1" vertex="1">
                    <mxGeometry x="350" y="230" width="140" height="70" as="geometry"/>
                </mxCell>
                <mxCell id="6" value="Verification" style="ellipse;whiteSpace=wrap;html=1;" parent="1" vertex="1">
                    <mxGeometry x="160" y="120" width="140" height="70" as="geometry"/>
                </mxCell>
                <mxCell id="7" value="Error" style="ellipse;whiteSpace=wrap;html=1;" parent="1" vertex="1">
                    <mxGeometry x="550" y="120" width="140" height="70" as="geometry"/>
                </mxCell>
                <mxCell id="8" value="&amp;lt;&amp;lt;include&amp;gt;&amp;gt;" style="html=1;verticalAlign=bottom;labelBackgroundColor=none;endArrow=open;endFill=0;dashed=1;exitX=0.28;exitY=0.082;exitDx=0;exitDy=0;exitPerimeter=0;" parent="1" source="5" target="6" edge="1">
                    <mxGeometry width="160" relative="1" as="geometry">
                        <mxPoint x="380" y="260" as="sourcePoint"/>
                        <mxPoint x="500" y="380" as="targetPoint"/>
                    </mxGeometry>
                </mxCell>
                <mxCell id="9" value="&amp;lt;&amp;lt;extend&amp;gt;&amp;gt;" style="html=1;verticalAlign=bottom;labelBackgroundColor=none;endArrow=open;endFill=0;dashed=1;exitX=0;exitY=1;exitDx=0;exitDy=0;" parent="1" source="7" target="5" edge="1">
                    <mxGeometry width="160" relative="1" as="geometry">
                        <mxPoint x="360" y="140" as="sourcePoint"/>
                        <mxPoint x="580" y="210" as="targetPoint"/>
                    </mxGeometry>
                </mxCell>
                <mxCell id="13" value="Create Ticket" style="ellipse;whiteSpace=wrap;html=1;" parent="1" vertex="1">
                    <mxGeometry x="160" y="370" width="140" height="70" as="geometry"/>
                </mxCell>
                <mxCell id="14" value="Visualize own&lt;br&gt;Tickets" style="ellipse;whiteSpace=wrap;html=1;" parent="1" vertex="1">
                    <mxGeometry x="350" y="370" width="140" height="70" as="geometry"/>
                </mxCell>
                <mxCell id="16" value="&lt;div style=&quot;text-align: left&quot;&gt;&lt;font color=&quot;#202124&quot; face=&quot;arial, sans-serif&quot;&gt;&lt;span style=&quot;font-size: 12px ; background-color: rgb(255 , 255 , 255)&quot;&gt;Edit Ticket&lt;/span&gt;&lt;/font&gt;&lt;/div&gt;" style="ellipse;whiteSpace=wrap;html=1;fontSize=16;" parent="1" vertex="1">
                    <mxGeometry x="540" y="370" width="140" height="70" as="geometry"/>
                </mxCell>
                <mxCell id="40" value="" style="endArrow=none;startArrow=none;endFill=0;startFill=0;endSize=8;html=1;verticalAlign=bottom;labelBackgroundColor=none;strokeWidth=3;exitX=0;exitY=0.5;exitDx=0;exitDy=0;entryX=1;entryY=0.3333333333333333;entryDx=0;entryDy=0;entryPerimeter=0;" parent="1" source="5" target="3" edge="1">
                    <mxGeometry width="160" relative="1" as="geometry">
                        <mxPoint x="580.0000000000002" y="155" as="sourcePoint"/>
                        <mxPoint x="80" y="220" as="targetPoint"/>
                    </mxGeometry>
                </mxCell>
                <mxCell id="52" value="Admin" style="shape=umlActor;verticalLabelPosition=bottom;verticalAlign=top;html=1;" parent="1" vertex="1">
                    <mxGeometry x="50" y="755" width="30" height="60" as="geometry"/>
                </mxCell>
                <mxCell id="53" value="Incident Management App - Ticketing System" style="shape=umlFrame;whiteSpace=wrap;html=1;width=280;height=30;" parent="1" vertex="1">
                    <mxGeometry x="120" y="560" width="600" height="440" as="geometry"/>
                </mxCell>
                <mxCell id="54" style="edgeStyle=orthogonalEdgeStyle;rounded=0;orthogonalLoop=1;jettySize=auto;html=1;" parent="1" source="57" target="63" edge="1">
                    <mxGeometry relative="1" as="geometry"/>
                </mxCell>
                <mxCell id="55" style="edgeStyle=orthogonalEdgeStyle;rounded=0;orthogonalLoop=1;jettySize=auto;html=1;entryX=0.5;entryY=0;entryDx=0;entryDy=0;exitX=0.5;exitY=1;exitDx=0;exitDy=0;" parent="1" source="57" target="62" edge="1">
                    <mxGeometry relative="1" as="geometry"/>
                </mxCell>
                <mxCell id="56" style="edgeStyle=orthogonalEdgeStyle;rounded=0;orthogonalLoop=1;jettySize=auto;html=1;exitX=0.5;exitY=1;exitDx=0;exitDy=0;" parent="1" source="57" target="64" edge="1">
                    <mxGeometry relative="1" as="geometry"/>
                </mxCell>
                <mxCell id="57" value="Authentication" style="ellipse;whiteSpace=wrap;html=1;" parent="1" vertex="1">
                    <mxGeometry x="350" y="740" width="140" height="70" as="geometry"/>
                </mxCell>
                <mxCell id="58" value="Verification" style="ellipse;whiteSpace=wrap;html=1;" parent="1" vertex="1">
                    <mxGeometry x="160" y="630" width="140" height="70" as="geometry"/>
                </mxCell>
                <mxCell id="59" value="Error" style="ellipse;whiteSpace=wrap;html=1;" parent="1" vertex="1">
                    <mxGeometry x="550" y="630" width="140" height="70" as="geometry"/>
                </mxCell>
                <mxCell id="60" value="&amp;lt;&amp;lt;include&amp;gt;&amp;gt;" style="html=1;verticalAlign=bottom;labelBackgroundColor=none;endArrow=open;endFill=0;dashed=1;exitX=0.28;exitY=0.082;exitDx=0;exitDy=0;exitPerimeter=0;" parent="1" source="57" target="58" edge="1">
                    <mxGeometry width="160" relative="1" as="geometry">
                        <mxPoint x="380" y="770" as="sourcePoint"/>
                        <mxPoint x="500" y="890" as="targetPoint"/>
                    </mxGeometry>
                </mxCell>
                <mxCell id="61" value="&amp;lt;&amp;lt;extend&amp;gt;&amp;gt;" style="html=1;verticalAlign=bottom;labelBackgroundColor=none;endArrow=open;endFill=0;dashed=1;exitX=0;exitY=1;exitDx=0;exitDy=0;" parent="1" source="59" target="57" edge="1">
                    <mxGeometry width="160" relative="1" as="geometry">
                        <mxPoint x="360" y="650" as="sourcePoint"/>
                        <mxPoint x="580" y="720" as="targetPoint"/>
                    </mxGeometry>
                </mxCell>
                <mxCell id="62" value="Visualize all Tickets" style="ellipse;whiteSpace=wrap;html=1;" parent="1" vertex="1">
                    <mxGeometry x="160" y="880" width="140" height="70" as="geometry"/>
                </mxCell>
                <mxCell id="63" value="Affect Ticket to Techinician or&lt;br&gt;Developer" style="ellipse;whiteSpace=wrap;html=1;" parent="1" vertex="1">
                    <mxGeometry x="350" y="880" width="140" height="70" as="geometry"/>
                </mxCell>
                <mxCell id="64" value="&lt;div style=&quot;text-align: left&quot;&gt;&lt;font color=&quot;#202124&quot; face=&quot;arial, sans-serif&quot;&gt;&lt;span style=&quot;font-size: 12px ; background-color: rgb(255 , 255 , 255)&quot;&gt;Delete Tickets&lt;/span&gt;&lt;/font&gt;&lt;/div&gt;" style="ellipse;whiteSpace=wrap;html=1;fontSize=16;" parent="1" vertex="1">
                    <mxGeometry x="540" y="880" width="140" height="70" as="geometry"/>
                </mxCell>
                <mxCell id="65" value="" style="endArrow=none;startArrow=none;endFill=0;startFill=0;endSize=8;html=1;verticalAlign=bottom;labelBackgroundColor=none;strokeWidth=3;exitX=0;exitY=0.5;exitDx=0;exitDy=0;entryX=1;entryY=0.3333333333333333;entryDx=0;entryDy=0;entryPerimeter=0;" parent="1" source="57" target="52" edge="1">
                    <mxGeometry width="160" relative="1" as="geometry">
                        <mxPoint x="580.0000000000002" y="665" as="sourcePoint"/>
                        <mxPoint x="80" y="730" as="targetPoint"/>
                    </mxGeometry>
                </mxCell>
                <mxCell id="80" value="Technician&lt;br&gt;Developer" style="shape=umlActor;verticalLabelPosition=bottom;verticalAlign=top;html=1;" parent="1" vertex="1">
                    <mxGeometry x="50" y="1274" width="30" height="60" as="geometry"/>
                </mxCell>
                <mxCell id="81" value="Incident Management App - Ticketing System" style="shape=umlFrame;whiteSpace=wrap;html=1;width=280;height=30;" parent="1" vertex="1">
                    <mxGeometry x="120" y="1080" width="600" height="440" as="geometry"/>
                </mxCell>
                <mxCell id="82" style="edgeStyle=orthogonalEdgeStyle;rounded=0;orthogonalLoop=1;jettySize=auto;html=1;" parent="1" source="85" target="91" edge="1">
                    <mxGeometry relative="1" as="geometry"/>
                </mxCell>
                <mxCell id="83" style="edgeStyle=orthogonalEdgeStyle;rounded=0;orthogonalLoop=1;jettySize=auto;html=1;entryX=0.5;entryY=0;entryDx=0;entryDy=0;exitX=0.5;exitY=1;exitDx=0;exitDy=0;" parent="1" source="85" target="90" edge="1">
                    <mxGeometry relative="1" as="geometry"/>
                </mxCell>
                <mxCell id="85" value="Authentication" style="ellipse;whiteSpace=wrap;html=1;" parent="1" vertex="1">
                    <mxGeometry x="350" y="1260" width="140" height="70" as="geometry"/>
                </mxCell>
                <mxCell id="86" value="Verification" style="ellipse;whiteSpace=wrap;html=1;" parent="1" vertex="1">
                    <mxGeometry x="160" y="1150" width="140" height="70" as="geometry"/>
                </mxCell>
                <mxCell id="87" value="Error" style="ellipse;whiteSpace=wrap;html=1;" parent="1" vertex="1">
                    <mxGeometry x="550" y="1150" width="140" height="70" as="geometry"/>
                </mxCell>
                <mxCell id="88" value="&amp;lt;&amp;lt;include&amp;gt;&amp;gt;" style="html=1;verticalAlign=bottom;labelBackgroundColor=none;endArrow=open;endFill=0;dashed=1;exitX=0.28;exitY=0.082;exitDx=0;exitDy=0;exitPerimeter=0;" parent="1" source="85" target="86" edge="1">
                    <mxGeometry width="160" relative="1" as="geometry">
                        <mxPoint x="380" y="1290" as="sourcePoint"/>
                        <mxPoint x="500" y="1410" as="targetPoint"/>
                    </mxGeometry>
                </mxCell>
                <mxCell id="89" value="&amp;lt;&amp;lt;extend&amp;gt;&amp;gt;" style="html=1;verticalAlign=bottom;labelBackgroundColor=none;endArrow=open;endFill=0;dashed=1;exitX=0;exitY=1;exitDx=0;exitDy=0;" parent="1" source="87" target="85" edge="1">
                    <mxGeometry width="160" relative="1" as="geometry">
                        <mxPoint x="360" y="1170" as="sourcePoint"/>
                        <mxPoint x="580" y="1240" as="targetPoint"/>
                    </mxGeometry>
                </mxCell>
                <mxCell id="90" value="Visualize affected&lt;br&gt;Tickets" style="ellipse;whiteSpace=wrap;html=1;" parent="1" vertex="1">
                    <mxGeometry x="210" y="1400" width="140" height="70" as="geometry"/>
                </mxCell>
                <mxCell id="91" value="Resolve affected&lt;br&gt;Tickets" style="ellipse;whiteSpace=wrap;html=1;" parent="1" vertex="1">
                    <mxGeometry x="490" y="1400" width="140" height="70" as="geometry"/>
                </mxCell>
                <mxCell id="93" value="" style="endArrow=none;startArrow=none;endFill=0;startFill=0;endSize=8;html=1;verticalAlign=bottom;labelBackgroundColor=none;strokeWidth=3;exitX=0;exitY=0.5;exitDx=0;exitDy=0;entryX=1;entryY=0.3333333333333333;entryDx=0;entryDy=0;entryPerimeter=0;" parent="1" source="85" target="80" edge="1">
                    <mxGeometry width="160" relative="1" as="geometry">
                        <mxPoint x="580.0000000000002" y="1185" as="sourcePoint"/>
                        <mxPoint x="80" y="1250" as="targetPoint"/>
                    </mxGeometry>
                </mxCell>
            </root>
        </mxGraphModel>
    </diagram>
    <diagram id="xCozKpzmZokLT37pw103" name="Class">
        <mxGraphModel dx="2040" dy="1643" grid="1" gridSize="10" guides="1" tooltips="1" connect="1" arrows="1" fold="1" page="1" pageScale="1" pageWidth="827" pageHeight="1169" math="0" shadow="0">
            <root>
                <mxCell id="gmE7A7GG5ShPQxuJ-1r--0"/>
                <mxCell id="gmE7A7GG5ShPQxuJ-1r--1" parent="gmE7A7GG5ShPQxuJ-1r--0"/>
                <mxCell id="jX_D7GrvgOF2nFyRu2KZ-20" style="edgeStyle=orthogonalEdgeStyle;rounded=0;orthogonalLoop=1;jettySize=auto;html=1;entryX=0.5;entryY=0;entryDx=0;entryDy=0;endArrow=none;endFill=0;" parent="gmE7A7GG5ShPQxuJ-1r--1" source="zlfHtoz1MQETwDLEhaN9-0" target="jX_D7GrvgOF2nFyRu2KZ-2" edge="1">
                    <mxGeometry relative="1" as="geometry"/>
                </mxCell>
                <mxCell id="zlfHtoz1MQETwDLEhaN9-0" value="Employee" style="swimlane;fontStyle=1;align=center;verticalAlign=top;childLayout=stackLayout;horizontal=1;startSize=26;horizontalStack=0;resizeParent=1;resizeParentMax=0;resizeLast=0;collapsible=1;marginBottom=0;" parent="gmE7A7GG5ShPQxuJ-1r--1" vertex="1">
                    <mxGeometry x="232.5" y="350" width="160" height="80" as="geometry">
                        <mxRectangle x="280" y="1000" width="90" height="26" as="alternateBounds"/>
                    </mxGeometry>
                </mxCell>
                <mxCell id="jX_D7GrvgOF2nFyRu2KZ-26" value="+ signUp()" style="text;strokeColor=none;fillColor=none;align=left;verticalAlign=top;spacingLeft=4;spacingRight=4;overflow=hidden;rotatable=0;points=[[0,0.5],[1,0.5]];portConstraint=eastwest;" parent="zlfHtoz1MQETwDLEhaN9-0" vertex="1">
                    <mxGeometry y="26" width="160" height="54" as="geometry"/>
                </mxCell>
                <mxCell id="zlfHtoz1MQETwDLEhaN9-5" value="User" style="swimlane;fontStyle=3;align=center;verticalAlign=top;childLayout=stackLayout;horizontal=1;startSize=26;horizontalStack=0;resizeParent=1;resizeParentMax=0;resizeLast=0;collapsible=1;marginBottom=0;" parent="gmE7A7GG5ShPQxuJ-1r--1" vertex="1">
                    <mxGeometry x="314" y="40" width="200" height="180" as="geometry"/>
                </mxCell>
                <mxCell id="zlfHtoz1MQETwDLEhaN9-6" value="+ user_id: int" style="label;fontStyle=0;strokeColor=none;fillColor=none;align=left;verticalAlign=top;overflow=hidden;spacingLeft=28;spacingRight=4;rotatable=0;points=[[0,0.5],[1,0.5]];portConstraint=eastwest;imageWidth=16;imageHeight=16;image=img/clipart/Gear_128x128.png" parent="zlfHtoz1MQETwDLEhaN9-5" vertex="1">
                    <mxGeometry y="26" width="200" height="26" as="geometry"/>
                </mxCell>
                <mxCell id="zlfHtoz1MQETwDLEhaN9-7" value="+ firstname: string&#10;+ lastname: string&#10;+ role: string&#10;- email: string&#10;- password: string" style="text;strokeColor=none;fillColor=none;align=left;verticalAlign=top;spacingLeft=4;spacingRight=4;overflow=hidden;rotatable=0;points=[[0,0.5],[1,0.5]];portConstraint=eastwest;" parent="zlfHtoz1MQETwDLEhaN9-5" vertex="1">
                    <mxGeometry y="52" width="200" height="78" as="geometry"/>
                </mxCell>
                <mxCell id="zlfHtoz1MQETwDLEhaN9-8" value="" style="line;strokeWidth=1;fillColor=none;align=left;verticalAlign=middle;spacingTop=-1;spacingLeft=3;spacingRight=3;rotatable=0;labelPosition=right;points=[];portConstraint=eastwest;" parent="zlfHtoz1MQETwDLEhaN9-5" vertex="1">
                    <mxGeometry y="130" width="200" height="8" as="geometry"/>
                </mxCell>
                <mxCell id="zlfHtoz1MQETwDLEhaN9-9" value="+ signIn()&#10;+ signOut()" style="text;strokeColor=none;fillColor=none;align=left;verticalAlign=top;spacingLeft=4;spacingRight=4;overflow=hidden;rotatable=0;points=[[0,0.5],[1,0.5]];portConstraint=eastwest;" parent="zlfHtoz1MQETwDLEhaN9-5" vertex="1">
                    <mxGeometry y="138" width="200" height="42" as="geometry"/>
                </mxCell>
                <mxCell id="zlfHtoz1MQETwDLEhaN9-10" value="Ticket" style="swimlane;fontStyle=1;align=center;verticalAlign=top;childLayout=stackLayout;horizontal=1;startSize=26;horizontalStack=0;resizeParent=1;resizeParentMax=0;resizeLast=0;collapsible=1;marginBottom=0;" parent="gmE7A7GG5ShPQxuJ-1r--1" vertex="1">
                    <mxGeometry x="314" y="670" width="200" height="260" as="geometry"/>
                </mxCell>
                <mxCell id="zlfHtoz1MQETwDLEhaN9-11" value="- ticket_id: int" style="label;fontStyle=0;strokeColor=none;fillColor=none;align=left;verticalAlign=top;overflow=hidden;spacingLeft=28;spacingRight=4;rotatable=0;points=[[0,0.5],[1,0.5]];portConstraint=eastwest;imageWidth=16;imageHeight=16;image=img/clipart/Gear_128x128.png" parent="zlfHtoz1MQETwDLEhaN9-10" vertex="1">
                    <mxGeometry y="26" width="200" height="26" as="geometry"/>
                </mxCell>
                <mxCell id="zlfHtoz1MQETwDLEhaN9-12" value="+ category: string&#10;+ priority: string&#10;+ title: string&#10;+ content: string&#10;+ status: string&#10;+ date_created: datetime&#10;+ date_updated: datetime" style="text;strokeColor=none;fillColor=none;align=left;verticalAlign=top;spacingLeft=4;spacingRight=4;overflow=hidden;rotatable=0;points=[[0,0.5],[1,0.5]];portConstraint=eastwest;" parent="zlfHtoz1MQETwDLEhaN9-10" vertex="1">
                    <mxGeometry y="52" width="200" height="108" as="geometry"/>
                </mxCell>
                <mxCell id="zlfHtoz1MQETwDLEhaN9-13" value="" style="line;strokeWidth=1;fillColor=none;align=left;verticalAlign=middle;spacingTop=-1;spacingLeft=3;spacingRight=3;rotatable=0;labelPosition=right;points=[];portConstraint=eastwest;" parent="zlfHtoz1MQETwDLEhaN9-10" vertex="1">
                    <mxGeometry y="160" width="200" height="8" as="geometry"/>
                </mxCell>
                <mxCell id="zlfHtoz1MQETwDLEhaN9-14" value="+ createTicket()&#10;+ readTicket()&#10;+ updateTicket()&#10;+ deleteTicket()&#10;+ assignTicket()" style="text;strokeColor=none;fillColor=none;align=left;verticalAlign=top;spacingLeft=4;spacingRight=4;overflow=hidden;rotatable=0;points=[[0,0.5],[1,0.5]];portConstraint=eastwest;" parent="zlfHtoz1MQETwDLEhaN9-10" vertex="1">
                    <mxGeometry y="168" width="200" height="92" as="geometry"/>
                </mxCell>
                <mxCell id="zlfHtoz1MQETwDLEhaN9-24" value="" style="endArrow=block;endFill=0;endSize=16;html=1;exitX=0.5;exitY=0;exitDx=0;exitDy=0;" parent="gmE7A7GG5ShPQxuJ-1r--1" source="zlfHtoz1MQETwDLEhaN9-0" edge="1">
                    <mxGeometry width="160" relative="1" as="geometry">
                        <mxPoint x="284" y="348" as="sourcePoint"/>
                        <mxPoint x="394" y="220" as="targetPoint"/>
                        <Array as="points">
                            <mxPoint x="313" y="290"/>
                            <mxPoint x="394" y="290"/>
                        </Array>
                    </mxGeometry>
                </mxCell>
                <mxCell id="jX_D7GrvgOF2nFyRu2KZ-19" style="edgeStyle=orthogonalEdgeStyle;rounded=0;orthogonalLoop=1;jettySize=auto;html=1;entryX=0.5;entryY=0;entryDx=0;entryDy=0;endArrow=none;endFill=0;" parent="gmE7A7GG5ShPQxuJ-1r--1" source="zlfHtoz1MQETwDLEhaN9-27" target="jX_D7GrvgOF2nFyRu2KZ-3" edge="1">
                    <mxGeometry relative="1" as="geometry"/>
                </mxCell>
                <mxCell id="zlfHtoz1MQETwDLEhaN9-27" value="Admin" style="swimlane;fontStyle=1;align=center;verticalAlign=top;childLayout=stackLayout;horizontal=1;startSize=26;horizontalStack=0;resizeParent=1;resizeParentMax=0;resizeLast=0;collapsible=1;marginBottom=0;" parent="gmE7A7GG5ShPQxuJ-1r--1" vertex="1">
                    <mxGeometry x="34" y="350" width="160" height="80" as="geometry"/>
                </mxCell>
                <mxCell id="jX_D7GrvgOF2nFyRu2KZ-25" value="" style="text;fillColor=none;align=left;verticalAlign=top;spacingLeft=4;spacingRight=4;overflow=hidden;rotatable=0;points=[[0,0.5],[1,0.5]];portConstraint=eastwest;strokeColor=#000000;" parent="zlfHtoz1MQETwDLEhaN9-27" vertex="1">
                    <mxGeometry y="26" width="160" height="54" as="geometry"/>
                </mxCell>
                <mxCell id="zlfHtoz1MQETwDLEhaN9-29" value="" style="endArrow=block;endFill=0;endSize=16;html=1;exitX=0.5;exitY=0;exitDx=0;exitDy=0;entryX=0.199;entryY=0.999;entryDx=0;entryDy=0;entryPerimeter=0;" parent="gmE7A7GG5ShPQxuJ-1r--1" source="zlfHtoz1MQETwDLEhaN9-27" target="zlfHtoz1MQETwDLEhaN9-9" edge="1">
                    <mxGeometry width="160" relative="1" as="geometry">
                        <mxPoint x="297.5" y="260" as="sourcePoint"/>
                        <mxPoint x="356" y="240" as="targetPoint"/>
                        <Array as="points">
                            <mxPoint x="114" y="270"/>
                            <mxPoint x="354" y="270"/>
                        </Array>
                    </mxGeometry>
                </mxCell>
                <mxCell id="jX_D7GrvgOF2nFyRu2KZ-22" style="edgeStyle=orthogonalEdgeStyle;rounded=0;orthogonalLoop=1;jettySize=auto;html=1;endArrow=none;endFill=0;exitX=0.5;exitY=1;exitDx=0;exitDy=0;" parent="gmE7A7GG5ShPQxuJ-1r--1" source="5L1C5SMNmx9autlvbdjx-0" edge="1">
                    <mxGeometry relative="1" as="geometry">
                        <mxPoint x="614" y="490" as="targetPoint"/>
                        <mxPoint x="504" y="460" as="sourcePoint"/>
                    </mxGeometry>
                </mxCell>
                <mxCell id="5L1C5SMNmx9autlvbdjx-0" value="Developer" style="swimlane;fontStyle=1;align=center;verticalAlign=top;childLayout=stackLayout;horizontal=1;startSize=26;horizontalStack=0;resizeParent=1;resizeParentMax=0;resizeLast=0;collapsible=1;marginBottom=0;" parent="gmE7A7GG5ShPQxuJ-1r--1" vertex="1">
                    <mxGeometry x="434" y="350" width="160" height="80" as="geometry">
                        <mxRectangle x="280" y="1000" width="90" height="26" as="alternateBounds"/>
                    </mxGeometry>
                </mxCell>
                <mxCell id="jX_D7GrvgOF2nFyRu2KZ-28" value="+ signUp()" style="text;strokeColor=none;fillColor=none;align=left;verticalAlign=top;spacingLeft=4;spacingRight=4;overflow=hidden;rotatable=0;points=[[0,0.5],[1,0.5]];portConstraint=eastwest;" parent="5L1C5SMNmx9autlvbdjx-0" vertex="1">
                    <mxGeometry y="26" width="160" height="54" as="geometry"/>
                </mxCell>
                <mxCell id="jX_D7GrvgOF2nFyRu2KZ-0" value="" style="endArrow=block;endFill=0;endSize=16;html=1;exitX=0.5;exitY=0;exitDx=0;exitDy=0;entryX=0.6;entryY=0.998;entryDx=0;entryDy=0;entryPerimeter=0;" parent="gmE7A7GG5ShPQxuJ-1r--1" source="5L1C5SMNmx9autlvbdjx-0" target="zlfHtoz1MQETwDLEhaN9-9" edge="1">
                    <mxGeometry width="160" relative="1" as="geometry">
                        <mxPoint x="484" y="391" as="sourcePoint"/>
                        <mxPoint x="432" y="230" as="targetPoint"/>
                        <Array as="points">
                            <mxPoint x="514" y="290"/>
                            <mxPoint x="434" y="290"/>
                        </Array>
                    </mxGeometry>
                </mxCell>
                <mxCell id="jX_D7GrvgOF2nFyRu2KZ-17" style="edgeStyle=orthogonalEdgeStyle;rounded=0;orthogonalLoop=1;jettySize=auto;html=1;entryX=0.5;entryY=0;entryDx=0;entryDy=0;endArrow=none;endFill=0;startArrow=diamond;startFill=1;startSize=16;" parent="gmE7A7GG5ShPQxuJ-1r--1" source="jX_D7GrvgOF2nFyRu2KZ-2" target="zlfHtoz1MQETwDLEhaN9-10" edge="1">
                    <mxGeometry relative="1" as="geometry">
                        <Array as="points">
                            <mxPoint x="312" y="620"/>
                            <mxPoint x="414" y="620"/>
                        </Array>
                    </mxGeometry>
                </mxCell>
                <mxCell id="jX_D7GrvgOF2nFyRu2KZ-2" value="&lt;p style=&quot;margin: 0px ; margin-top: 4px ; text-align: center&quot;&gt;&lt;i&gt;&amp;lt;&amp;lt;Interface&amp;gt;&amp;gt;&lt;/i&gt;&lt;br&gt;&lt;b&gt;Ticket Creator&lt;/b&gt;&lt;/p&gt;&lt;hr size=&quot;1&quot;&gt;&lt;p style=&quot;margin: 0px ; margin-left: 4px&quot;&gt;+ createTicket()&lt;br&gt;+ modifyTicket()&lt;/p&gt;" style="verticalAlign=top;align=left;overflow=fill;fontSize=12;fontFamily=Helvetica;html=1;strokeColor=#000000;" parent="gmE7A7GG5ShPQxuJ-1r--1" vertex="1">
                    <mxGeometry x="232.5" y="490" width="160" height="80" as="geometry"/>
                </mxCell>
                <mxCell id="jX_D7GrvgOF2nFyRu2KZ-16" style="edgeStyle=orthogonalEdgeStyle;rounded=0;orthogonalLoop=1;jettySize=auto;html=1;entryX=0.5;entryY=0;entryDx=0;entryDy=0;exitX=0.5;exitY=1;exitDx=0;exitDy=0;endArrow=none;endFill=0;startArrow=diamond;startFill=1;targetPerimeterSpacing=0;sourcePerimeterSpacing=0;strokeWidth=1;startSize=16;" parent="gmE7A7GG5ShPQxuJ-1r--1" source="jX_D7GrvgOF2nFyRu2KZ-3" target="zlfHtoz1MQETwDLEhaN9-10" edge="1">
                    <mxGeometry relative="1" as="geometry">
                        <Array as="points">
                            <mxPoint x="114" y="620"/>
                            <mxPoint x="414" y="620"/>
                        </Array>
                    </mxGeometry>
                </mxCell>
                <mxCell id="jX_D7GrvgOF2nFyRu2KZ-3" value="&lt;p style=&quot;margin: 0px ; margin-top: 4px ; text-align: center&quot;&gt;&lt;i&gt;&amp;lt;&amp;lt;Interface&amp;gt;&amp;gt;&lt;/i&gt;&lt;br&gt;&lt;b&gt;Ticket Manager&lt;/b&gt;&lt;/p&gt;&lt;hr size=&quot;1&quot;&gt;&lt;p style=&quot;margin: 0px ; margin-left: 4px&quot;&gt;+ assignTicket()&lt;br&gt;+ deleteTicket()&lt;br&gt;&lt;/p&gt;" style="verticalAlign=top;align=left;overflow=fill;fontSize=12;fontFamily=Helvetica;html=1;strokeColor=#000000;" parent="gmE7A7GG5ShPQxuJ-1r--1" vertex="1">
                    <mxGeometry x="34" y="490" width="160" height="80" as="geometry"/>
                </mxCell>
                <mxCell id="jX_D7GrvgOF2nFyRu2KZ-18" style="edgeStyle=orthogonalEdgeStyle;rounded=0;orthogonalLoop=1;jettySize=auto;html=1;entryX=0.5;entryY=0;entryDx=0;entryDy=0;exitX=0.5;exitY=1;exitDx=0;exitDy=0;endArrow=none;endFill=0;startArrow=diamond;startFill=1;startSize=16;" parent="gmE7A7GG5ShPQxuJ-1r--1" source="jX_D7GrvgOF2nFyRu2KZ-4" target="zlfHtoz1MQETwDLEhaN9-10" edge="1">
                    <mxGeometry relative="1" as="geometry">
                        <Array as="points">
                            <mxPoint x="614" y="620"/>
                            <mxPoint x="414" y="620"/>
                        </Array>
                    </mxGeometry>
                </mxCell>
                <mxCell id="jX_D7GrvgOF2nFyRu2KZ-4" value="&lt;p style=&quot;margin: 0px ; margin-top: 4px ; text-align: center&quot;&gt;&lt;i&gt;&amp;lt;&amp;lt;Interface&amp;gt;&amp;gt;&lt;/i&gt;&lt;br&gt;&lt;b&gt;Ticket Handler&lt;/b&gt;&lt;/p&gt;&lt;hr size=&quot;1&quot;&gt;&lt;p style=&quot;margin: 0px ; margin-left: 4px&quot;&gt;+ updateTicket()&lt;br&gt;&lt;/p&gt;" style="verticalAlign=top;align=left;overflow=fill;fontSize=12;fontFamily=Helvetica;html=1;strokeColor=#000000;" parent="gmE7A7GG5ShPQxuJ-1r--1" vertex="1">
                    <mxGeometry x="534" y="490" width="160" height="70" as="geometry"/>
                </mxCell>
                <mxCell id="jX_D7GrvgOF2nFyRu2KZ-21" style="edgeStyle=orthogonalEdgeStyle;rounded=0;orthogonalLoop=1;jettySize=auto;html=1;entryX=0.5;entryY=0;entryDx=0;entryDy=0;endArrow=none;endFill=0;" parent="gmE7A7GG5ShPQxuJ-1r--1" source="jX_D7GrvgOF2nFyRu2KZ-5" target="jX_D7GrvgOF2nFyRu2KZ-4" edge="1">
                    <mxGeometry relative="1" as="geometry"/>
                </mxCell>
                <mxCell id="jX_D7GrvgOF2nFyRu2KZ-5" value="Technician" style="swimlane;fontStyle=1;align=center;verticalAlign=top;childLayout=stackLayout;horizontal=1;startSize=26;horizontalStack=0;resizeParent=1;resizeParentMax=0;resizeLast=0;collapsible=1;marginBottom=0;" parent="gmE7A7GG5ShPQxuJ-1r--1" vertex="1">
                    <mxGeometry x="634" y="350" width="160" height="80" as="geometry">
                        <mxRectangle x="280" y="1000" width="90" height="26" as="alternateBounds"/>
                    </mxGeometry>
                </mxCell>
                <mxCell id="jX_D7GrvgOF2nFyRu2KZ-29" value="+ signUp()" style="text;strokeColor=none;fillColor=none;align=left;verticalAlign=top;spacingLeft=4;spacingRight=4;overflow=hidden;rotatable=0;points=[[0,0.5],[1,0.5]];portConstraint=eastwest;" parent="jX_D7GrvgOF2nFyRu2KZ-5" vertex="1">
                    <mxGeometry y="26" width="160" height="54" as="geometry"/>
                </mxCell>
                <mxCell id="jX_D7GrvgOF2nFyRu2KZ-8" value="" style="endArrow=block;endFill=0;endSize=16;html=1;exitX=0.5;exitY=0;exitDx=0;exitDy=0;entryX=0.8;entryY=1.005;entryDx=0;entryDy=0;entryPerimeter=0;" parent="gmE7A7GG5ShPQxuJ-1r--1" source="jX_D7GrvgOF2nFyRu2KZ-5" target="zlfHtoz1MQETwDLEhaN9-9" edge="1">
                    <mxGeometry width="160" relative="1" as="geometry">
                        <mxPoint x="474" y="360" as="sourcePoint"/>
                        <mxPoint x="474" y="230" as="targetPoint"/>
                        <Array as="points">
                            <mxPoint x="714" y="270"/>
                            <mxPoint x="474" y="270"/>
                        </Array>
                    </mxGeometry>
                </mxCell>
                <mxCell id="VmsbY3ZRxfqGZlVSKEtP-0" value="Admin" style="swimlane;fontStyle=1;align=center;verticalAlign=top;childLayout=stackLayout;horizontal=1;startSize=26;horizontalStack=0;resizeParent=1;resizeParentMax=0;resizeLast=0;collapsible=1;marginBottom=0;" vertex="1" parent="gmE7A7GG5ShPQxuJ-1r--1">
                    <mxGeometry x="29" y="1055" width="160" height="134" as="geometry"/>
                </mxCell>
                <mxCell id="VmsbY3ZRxfqGZlVSKEtP-1" value="- admin_id: int" style="label;fontStyle=0;strokeColor=none;fillColor=none;align=left;verticalAlign=top;overflow=hidden;spacingLeft=28;spacingRight=4;rotatable=0;points=[[0,0.5],[1,0.5]];portConstraint=eastwest;imageWidth=16;imageHeight=16;image=img/clipart/Gear_128x128.png" vertex="1" parent="VmsbY3ZRxfqGZlVSKEtP-0">
                    <mxGeometry y="26" width="160" height="26" as="geometry"/>
                </mxCell>
                <mxCell id="VmsbY3ZRxfqGZlVSKEtP-2" value="- username: string&#10;- password: string&#10;- email: string" style="text;strokeColor=none;fillColor=none;align=left;verticalAlign=top;spacingLeft=4;spacingRight=4;overflow=hidden;rotatable=0;points=[[0,0.5],[1,0.5]];portConstraint=eastwest;" vertex="1" parent="VmsbY3ZRxfqGZlVSKEtP-0">
                    <mxGeometry y="52" width="160" height="48" as="geometry"/>
                </mxCell>
                <mxCell id="VmsbY3ZRxfqGZlVSKEtP-3" value="" style="line;strokeWidth=1;fillColor=none;align=left;verticalAlign=middle;spacingTop=-1;spacingLeft=3;spacingRight=3;rotatable=0;labelPosition=right;points=[];portConstraint=eastwest;" vertex="1" parent="VmsbY3ZRxfqGZlVSKEtP-0">
                    <mxGeometry y="100" width="160" height="8" as="geometry"/>
                </mxCell>
                <mxCell id="VmsbY3ZRxfqGZlVSKEtP-4" value="+ login()" style="text;strokeColor=none;fillColor=none;align=left;verticalAlign=top;spacingLeft=4;spacingRight=4;overflow=hidden;rotatable=0;points=[[0,0.5],[1,0.5]];portConstraint=eastwest;" vertex="1" parent="VmsbY3ZRxfqGZlVSKEtP-0">
                    <mxGeometry y="108" width="160" height="26" as="geometry"/>
                </mxCell>
                <mxCell id="VmsbY3ZRxfqGZlVSKEtP-5" value="User" style="swimlane;fontStyle=1;align=center;verticalAlign=top;childLayout=stackLayout;horizontal=1;startSize=26;horizontalStack=0;resizeParent=1;resizeParentMax=0;resizeLast=0;collapsible=1;marginBottom=0;" vertex="1" parent="gmE7A7GG5ShPQxuJ-1r--1">
                    <mxGeometry x="639" y="1042" width="160" height="134" as="geometry"/>
                </mxCell>
                <mxCell id="VmsbY3ZRxfqGZlVSKEtP-6" value="- user_id: int" style="label;fontStyle=0;strokeColor=none;fillColor=none;align=left;verticalAlign=top;overflow=hidden;spacingLeft=28;spacingRight=4;rotatable=0;points=[[0,0.5],[1,0.5]];portConstraint=eastwest;imageWidth=16;imageHeight=16;image=img/clipart/Gear_128x128.png" vertex="1" parent="VmsbY3ZRxfqGZlVSKEtP-5">
                    <mxGeometry y="26" width="160" height="26" as="geometry"/>
                </mxCell>
                <mxCell id="VmsbY3ZRxfqGZlVSKEtP-7" value="- username: string&#10;- password: string&#10;+ email: string" style="text;strokeColor=none;fillColor=none;align=left;verticalAlign=top;spacingLeft=4;spacingRight=4;overflow=hidden;rotatable=0;points=[[0,0.5],[1,0.5]];portConstraint=eastwest;" vertex="1" parent="VmsbY3ZRxfqGZlVSKEtP-5">
                    <mxGeometry y="52" width="160" height="48" as="geometry"/>
                </mxCell>
                <mxCell id="VmsbY3ZRxfqGZlVSKEtP-8" value="" style="line;strokeWidth=1;fillColor=none;align=left;verticalAlign=middle;spacingTop=-1;spacingLeft=3;spacingRight=3;rotatable=0;labelPosition=right;points=[];portConstraint=eastwest;" vertex="1" parent="VmsbY3ZRxfqGZlVSKEtP-5">
                    <mxGeometry y="100" width="160" height="8" as="geometry"/>
                </mxCell>
                <mxCell id="VmsbY3ZRxfqGZlVSKEtP-9" value="+ login()" style="text;strokeColor=none;fillColor=none;align=left;verticalAlign=top;spacingLeft=4;spacingRight=4;overflow=hidden;rotatable=0;points=[[0,0.5],[1,0.5]];portConstraint=eastwest;" vertex="1" parent="VmsbY3ZRxfqGZlVSKEtP-5">
                    <mxGeometry y="108" width="160" height="26" as="geometry"/>
                </mxCell>
                <mxCell id="VmsbY3ZRxfqGZlVSKEtP-10" value="Ticket" style="swimlane;fontStyle=1;align=center;verticalAlign=top;childLayout=stackLayout;horizontal=1;startSize=26;horizontalStack=0;resizeParent=1;resizeParentMax=0;resizeLast=0;collapsible=1;marginBottom=0;" vertex="1" parent="gmE7A7GG5ShPQxuJ-1r--1">
                    <mxGeometry x="332.5" y="1000" width="160" height="230" as="geometry"/>
                </mxCell>
                <mxCell id="VmsbY3ZRxfqGZlVSKEtP-11" value="- ticket_id: int" style="label;fontStyle=0;strokeColor=none;fillColor=none;align=left;verticalAlign=top;overflow=hidden;spacingLeft=28;spacingRight=4;rotatable=0;points=[[0,0.5],[1,0.5]];portConstraint=eastwest;imageWidth=16;imageHeight=16;image=img/clipart/Gear_128x128.png" vertex="1" parent="VmsbY3ZRxfqGZlVSKEtP-10">
                    <mxGeometry y="26" width="160" height="26" as="geometry"/>
                </mxCell>
                <mxCell id="VmsbY3ZRxfqGZlVSKEtP-12" value="+ category: string&#10;+ priority: string&#10;+ title: string&#10;+ content: string&#10;+ status: string" style="text;strokeColor=none;fillColor=none;align=left;verticalAlign=top;spacingLeft=4;spacingRight=4;overflow=hidden;rotatable=0;points=[[0,0.5],[1,0.5]];portConstraint=eastwest;" vertex="1" parent="VmsbY3ZRxfqGZlVSKEtP-10">
                    <mxGeometry y="52" width="160" height="78" as="geometry"/>
                </mxCell>
                <mxCell id="VmsbY3ZRxfqGZlVSKEtP-13" value="" style="line;strokeWidth=1;fillColor=none;align=left;verticalAlign=middle;spacingTop=-1;spacingLeft=3;spacingRight=3;rotatable=0;labelPosition=right;points=[];portConstraint=eastwest;" vertex="1" parent="VmsbY3ZRxfqGZlVSKEtP-10">
                    <mxGeometry y="130" width="160" height="8" as="geometry"/>
                </mxCell>
                <mxCell id="VmsbY3ZRxfqGZlVSKEtP-14" value="+ createTicket()&#10;+ readTicket()&#10;+ updateTicket()&#10;+ deleteTicket()&#10;+ treatTicket()" style="text;strokeColor=none;fillColor=none;align=left;verticalAlign=top;spacingLeft=4;spacingRight=4;overflow=hidden;rotatable=0;points=[[0,0.5],[1,0.5]];portConstraint=eastwest;" vertex="1" parent="VmsbY3ZRxfqGZlVSKEtP-10">
                    <mxGeometry y="138" width="160" height="92" as="geometry"/>
                </mxCell>
                <mxCell id="VmsbY3ZRxfqGZlVSKEtP-15" value="" style="endArrow=none;startArrow=none;endFill=0;startFill=0;endSize=8;html=1;verticalAlign=bottom;labelBackgroundColor=none;strokeWidth=3;exitX=1.002;exitY=0.263;exitDx=0;exitDy=0;exitPerimeter=0;entryX=-0.003;entryY=0.851;entryDx=0;entryDy=0;entryPerimeter=0;" edge="1" parent="gmE7A7GG5ShPQxuJ-1r--1" source="VmsbY3ZRxfqGZlVSKEtP-2" target="VmsbY3ZRxfqGZlVSKEtP-12">
                    <mxGeometry width="160" relative="1" as="geometry">
                        <mxPoint x="259" y="1118" as="sourcePoint"/>
                        <mxPoint x="329" y="1118" as="targetPoint"/>
                    </mxGeometry>
                </mxCell>
                <mxCell id="VmsbY3ZRxfqGZlVSKEtP-16" value="CRUD &amp;amp; Treat" style="edgeLabel;html=1;align=center;verticalAlign=middle;resizable=0;points=[];" vertex="1" connectable="0" parent="VmsbY3ZRxfqGZlVSKEtP-15">
                    <mxGeometry x="-0.0792" y="-1" relative="1" as="geometry">
                        <mxPoint x="4" as="offset"/>
                    </mxGeometry>
                </mxCell>
                <mxCell id="VmsbY3ZRxfqGZlVSKEtP-17" value="" style="endArrow=none;startArrow=none;endFill=0;startFill=0;endSize=8;html=1;verticalAlign=bottom;labelBackgroundColor=none;strokeWidth=3;entryX=0;entryY=0.5;entryDx=0;entryDy=0;exitX=1.003;exitY=0.838;exitDx=0;exitDy=0;exitPerimeter=0;" edge="1" parent="gmE7A7GG5ShPQxuJ-1r--1" source="VmsbY3ZRxfqGZlVSKEtP-12" target="VmsbY3ZRxfqGZlVSKEtP-7">
                    <mxGeometry width="160" relative="1" as="geometry">
                        <mxPoint x="499" y="1117" as="sourcePoint"/>
                        <mxPoint x="589" y="1118.1" as="targetPoint"/>
                    </mxGeometry>
                </mxCell>
                <mxCell id="VmsbY3ZRxfqGZlVSKEtP-18" value="CRUD" style="edgeLabel;html=1;align=center;verticalAlign=middle;resizable=0;points=[];" vertex="1" connectable="0" parent="VmsbY3ZRxfqGZlVSKEtP-17">
                    <mxGeometry x="-0.0792" y="-1" relative="1" as="geometry">
                        <mxPoint x="9" y="-2.08" as="offset"/>
                    </mxGeometry>
                </mxCell>
                <mxCell id="VmsbY3ZRxfqGZlVSKEtP-19" value="1" style="text;html=1;align=center;verticalAlign=middle;resizable=0;points=[];autosize=1;" vertex="1" parent="gmE7A7GG5ShPQxuJ-1r--1">
                    <mxGeometry x="199" y="1086" width="20" height="20" as="geometry"/>
                </mxCell>
                <mxCell id="VmsbY3ZRxfqGZlVSKEtP-20" value="1" style="text;html=1;align=center;verticalAlign=middle;resizable=0;points=[];autosize=1;" vertex="1" parent="gmE7A7GG5ShPQxuJ-1r--1">
                    <mxGeometry x="609" y="1086" width="20" height="20" as="geometry"/>
                </mxCell>
                <mxCell id="VmsbY3ZRxfqGZlVSKEtP-21" value="0..*" style="text;html=1;align=center;verticalAlign=middle;resizable=0;points=[];autosize=1;" vertex="1" parent="gmE7A7GG5ShPQxuJ-1r--1">
                    <mxGeometry x="294" y="1086" width="30" height="20" as="geometry"/>
                </mxCell>
                <mxCell id="VmsbY3ZRxfqGZlVSKEtP-22" value="0..*" style="text;html=1;align=center;verticalAlign=middle;resizable=0;points=[];autosize=1;" vertex="1" parent="gmE7A7GG5ShPQxuJ-1r--1">
                    <mxGeometry x="505" y="1086" width="30" height="20" as="geometry"/>
                </mxCell>
            </root>
        </mxGraphModel>
    </diagram>
    <diagram id="OXNffQpp9cpumtKaszYT" name="Sequence">
        <mxGraphModel dx="1785" dy="1438" grid="1" gridSize="10" guides="1" tooltips="1" connect="1" arrows="1" fold="1" page="1" pageScale="1" pageWidth="827" pageHeight="1169" math="0" shadow="0">
            <root>
                <mxCell id="V4IsUhxSaCDauvAcyeti-0"/>
                <mxCell id="V4IsUhxSaCDauvAcyeti-1" parent="V4IsUhxSaCDauvAcyeti-0"/>
                <mxCell id="V4IsUhxSaCDauvAcyeti-3" value="Login" style="html=1;verticalAlign=bottom;endArrow=block;entryX=-0.016;entryY=0.099;entryDx=0;entryDy=0;entryPerimeter=0;" parent="V4IsUhxSaCDauvAcyeti-1" source="V4IsUhxSaCDauvAcyeti-12" target="V4IsUhxSaCDauvAcyeti-2" edge="1">
                    <mxGeometry relative="1" as="geometry">
                        <mxPoint x="280" y="180" as="sourcePoint"/>
                    </mxGeometry>
                </mxCell>
                <mxCell id="V4IsUhxSaCDauvAcyeti-4" value="Login OK" style="html=1;verticalAlign=bottom;endArrow=open;dashed=1;endSize=8;" parent="V4IsUhxSaCDauvAcyeti-1" target="V4IsUhxSaCDauvAcyeti-12" edge="1">
                    <mxGeometry relative="1" as="geometry">
                        <mxPoint x="280" y="256" as="targetPoint"/>
                        <mxPoint x="504" y="275" as="sourcePoint"/>
                    </mxGeometry>
                </mxCell>
                <mxCell id="V4IsUhxSaCDauvAcyeti-10" value="Interface" style="shape=umlLifeline;perimeter=lifelinePerimeter;whiteSpace=wrap;html=1;container=1;collapsible=0;recursiveResize=0;outlineConnect=0;" parent="V4IsUhxSaCDauvAcyeti-1" vertex="1">
                    <mxGeometry x="460" y="40" width="100" height="560" as="geometry"/>
                </mxCell>
                <mxCell id="V4IsUhxSaCDauvAcyeti-2" value="" style="html=1;points=[];perimeter=orthogonalPerimeter;" parent="V4IsUhxSaCDauvAcyeti-10" vertex="1">
                    <mxGeometry x="45" y="90" width="10" height="440" as="geometry"/>
                </mxCell>
                <mxCell id="V4IsUhxSaCDauvAcyeti-12" value="" style="shape=umlLifeline;participant=umlActor;perimeter=lifelinePerimeter;whiteSpace=wrap;html=1;container=1;collapsible=0;recursiveResize=0;verticalAlign=top;spacingTop=36;outlineConnect=0;" parent="V4IsUhxSaCDauvAcyeti-1" vertex="1">
                    <mxGeometry x="200" y="45" width="20" height="555" as="geometry"/>
                </mxCell>
                <mxCell id="V4IsUhxSaCDauvAcyeti-13" value="Verification" style="shape=umlFrame;tabWidth=110;tabHeight=30;tabPosition=left;html=1;boundedLbl=1;labelInHeader=1;width=140;height=30;" parent="V4IsUhxSaCDauvAcyeti-1" vertex="1">
                    <mxGeometry x="70" y="200" width="530" height="190" as="geometry"/>
                </mxCell>
                <mxCell id="V4IsUhxSaCDauvAcyeti-14" value="[Password VALID]" style="text" parent="V4IsUhxSaCDauvAcyeti-13" vertex="1">
                    <mxGeometry width="100" height="20" relative="1" as="geometry">
                        <mxPoint x="20" y="40" as="offset"/>
                    </mxGeometry>
                </mxCell>
                <mxCell id="V4IsUhxSaCDauvAcyeti-15" value="[Password INVALID]" style="line;strokeWidth=1;dashed=1;labelPosition=center;verticalLabelPosition=bottom;align=left;verticalAlign=top;spacingLeft=20;spacingTop=15;" parent="V4IsUhxSaCDauvAcyeti-13" vertex="1">
                    <mxGeometry y="95" width="530" height="7.599999999999999" as="geometry"/>
                </mxCell>
                <mxCell id="V4IsUhxSaCDauvAcyeti-16" value="Re-Login" style="html=1;verticalAlign=bottom;endArrow=block;" parent="V4IsUhxSaCDauvAcyeti-1" target="V4IsUhxSaCDauvAcyeti-10" edge="1">
                    <mxGeometry relative="1" as="geometry">
                        <mxPoint x="210" y="360" as="sourcePoint"/>
                        <mxPoint x="305.19" y="360.00000000000034" as="targetPoint"/>
                    </mxGeometry>
                </mxCell>
                <mxCell id="V4IsUhxSaCDauvAcyeti-18" value="Create Ticket" style="html=1;verticalAlign=bottom;endArrow=block;entryX=0.021;entryY=0.138;entryDx=0;entryDy=0;entryPerimeter=0;" parent="V4IsUhxSaCDauvAcyeti-1" edge="1">
                    <mxGeometry relative="1" as="geometry">
                        <mxPoint x="210" y="480" as="sourcePoint"/>
                        <mxPoint x="695.21" y="480.70000000000005" as="targetPoint"/>
                    </mxGeometry>
                </mxCell>
                <mxCell id="V4IsUhxSaCDauvAcyeti-19" value="App" style="shape=umlLifeline;perimeter=lifelinePerimeter;whiteSpace=wrap;html=1;container=1;collapsible=0;recursiveResize=0;outlineConnect=0;" parent="V4IsUhxSaCDauvAcyeti-1" vertex="1">
                    <mxGeometry x="650" y="40" width="100" height="560" as="geometry"/>
                </mxCell>
                <mxCell id="V4IsUhxSaCDauvAcyeti-20" value="" style="html=1;points=[];perimeter=orthogonalPerimeter;" parent="V4IsUhxSaCDauvAcyeti-19" vertex="1">
                    <mxGeometry x="45" y="380" width="10" height="150" as="geometry"/>
                </mxCell>
                <mxCell id="V4IsUhxSaCDauvAcyeti-21" value="Read Ticket" style="html=1;verticalAlign=bottom;endArrow=open;dashed=1;endSize=8;" parent="V4IsUhxSaCDauvAcyeti-1" edge="1">
                    <mxGeometry relative="1" as="geometry">
                        <mxPoint x="209.5" y="520" as="targetPoint"/>
                        <mxPoint x="694.5" y="520" as="sourcePoint"/>
                    </mxGeometry>
                </mxCell>
                <mxCell id="V4IsUhxSaCDauvAcyeti-25" value="Update Ticket" style="html=1;verticalAlign=bottom;endArrow=block;entryX=0.021;entryY=0.665;entryDx=0;entryDy=0;entryPerimeter=0;" parent="V4IsUhxSaCDauvAcyeti-1" edge="1">
                    <mxGeometry relative="1" as="geometry">
                        <mxPoint x="210" y="560" as="sourcePoint"/>
                        <mxPoint x="695.21" y="559.75" as="targetPoint"/>
                    </mxGeometry>
                </mxCell>
                <mxCell id="9vd5IG-_hdHOIYb3zTWt-0" value="Read Ticket" style="html=1;verticalAlign=bottom;endArrow=open;dashed=1;endSize=8;" parent="V4IsUhxSaCDauvAcyeti-1" edge="1">
                    <mxGeometry relative="1" as="geometry">
                        <mxPoint x="210.00034482758628" y="439.9999999999999" as="targetPoint"/>
                        <mxPoint x="694.69" y="439.9999999999999" as="sourcePoint"/>
                    </mxGeometry>
                </mxCell>
                <mxCell id="9vd5IG-_hdHOIYb3zTWt-1" value="User" style="text;html=1;align=center;verticalAlign=middle;resizable=0;points=[];autosize=1;" parent="V4IsUhxSaCDauvAcyeti-1" vertex="1">
                    <mxGeometry x="190" y="20" width="40" height="20" as="geometry"/>
                </mxCell>
                <mxCell id="9vd5IG-_hdHOIYb3zTWt-2" value="Login" style="html=1;verticalAlign=bottom;endArrow=block;entryX=-0.016;entryY=0.099;entryDx=0;entryDy=0;entryPerimeter=0;" parent="V4IsUhxSaCDauvAcyeti-1" source="9vd5IG-_hdHOIYb3zTWt-6" target="9vd5IG-_hdHOIYb3zTWt-5" edge="1">
                    <mxGeometry relative="1" as="geometry">
                        <mxPoint x="280" y="820" as="sourcePoint"/>
                    </mxGeometry>
                </mxCell>
                <mxCell id="9vd5IG-_hdHOIYb3zTWt-3" value="Login OK" style="html=1;verticalAlign=bottom;endArrow=open;dashed=1;endSize=8;" parent="V4IsUhxSaCDauvAcyeti-1" target="9vd5IG-_hdHOIYb3zTWt-6" edge="1">
                    <mxGeometry relative="1" as="geometry">
                        <mxPoint x="280" y="896" as="targetPoint"/>
                        <mxPoint x="504" y="915" as="sourcePoint"/>
                    </mxGeometry>
                </mxCell>
                <mxCell id="9vd5IG-_hdHOIYb3zTWt-4" value="Interface" style="shape=umlLifeline;perimeter=lifelinePerimeter;whiteSpace=wrap;html=1;container=1;collapsible=0;recursiveResize=0;outlineConnect=0;" parent="V4IsUhxSaCDauvAcyeti-1" vertex="1">
                    <mxGeometry x="460" y="680" width="100" height="560" as="geometry"/>
                </mxCell>
                <mxCell id="9vd5IG-_hdHOIYb3zTWt-5" value="" style="html=1;points=[];perimeter=orthogonalPerimeter;" parent="9vd5IG-_hdHOIYb3zTWt-4" vertex="1">
                    <mxGeometry x="45" y="90" width="10" height="440" as="geometry"/>
                </mxCell>
                <mxCell id="9vd5IG-_hdHOIYb3zTWt-6" value="" style="shape=umlLifeline;participant=umlActor;perimeter=lifelinePerimeter;whiteSpace=wrap;html=1;container=1;collapsible=0;recursiveResize=0;verticalAlign=top;spacingTop=36;outlineConnect=0;" parent="V4IsUhxSaCDauvAcyeti-1" vertex="1">
                    <mxGeometry x="200" y="685" width="20" height="555" as="geometry"/>
                </mxCell>
                <mxCell id="9vd5IG-_hdHOIYb3zTWt-7" value="Verification" style="shape=umlFrame;tabWidth=110;tabHeight=30;tabPosition=left;html=1;boundedLbl=1;labelInHeader=1;width=140;height=30;" parent="V4IsUhxSaCDauvAcyeti-1" vertex="1">
                    <mxGeometry x="70" y="840" width="530" height="190" as="geometry"/>
                </mxCell>
                <mxCell id="9vd5IG-_hdHOIYb3zTWt-8" value="[Password VALID]" style="text" parent="9vd5IG-_hdHOIYb3zTWt-7" vertex="1">
                    <mxGeometry width="100" height="20" relative="1" as="geometry">
                        <mxPoint x="20" y="40" as="offset"/>
                    </mxGeometry>
                </mxCell>
                <mxCell id="9vd5IG-_hdHOIYb3zTWt-9" value="[Password INVALID]" style="line;strokeWidth=1;dashed=1;labelPosition=center;verticalLabelPosition=bottom;align=left;verticalAlign=top;spacingLeft=20;spacingTop=15;" parent="9vd5IG-_hdHOIYb3zTWt-7" vertex="1">
                    <mxGeometry y="95" width="530" height="7.599999999999999" as="geometry"/>
                </mxCell>
                <mxCell id="9vd5IG-_hdHOIYb3zTWt-10" value="Re-Login" style="html=1;verticalAlign=bottom;endArrow=block;entryX=0.082;entryY=0.522;entryDx=0;entryDy=0;entryPerimeter=0;" parent="V4IsUhxSaCDauvAcyeti-1" target="9vd5IG-_hdHOIYb3zTWt-5" edge="1">
                    <mxGeometry relative="1" as="geometry">
                        <mxPoint x="210" y="1000" as="sourcePoint"/>
                        <mxPoint x="500" y="1000" as="targetPoint"/>
                    </mxGeometry>
                </mxCell>
                <mxCell id="9vd5IG-_hdHOIYb3zTWt-11" value="Affect Ticket" style="html=1;verticalAlign=bottom;endArrow=block;entryX=0.021;entryY=0.138;entryDx=0;entryDy=0;entryPerimeter=0;" parent="V4IsUhxSaCDauvAcyeti-1" edge="1">
                    <mxGeometry relative="1" as="geometry">
                        <mxPoint x="210" y="1120" as="sourcePoint"/>
                        <mxPoint x="695.21" y="1120.7" as="targetPoint"/>
                    </mxGeometry>
                </mxCell>
                <mxCell id="9vd5IG-_hdHOIYb3zTWt-12" value="App" style="shape=umlLifeline;perimeter=lifelinePerimeter;whiteSpace=wrap;html=1;container=1;collapsible=0;recursiveResize=0;outlineConnect=0;" parent="V4IsUhxSaCDauvAcyeti-1" vertex="1">
                    <mxGeometry x="650" y="680" width="100" height="560" as="geometry"/>
                </mxCell>
                <mxCell id="9vd5IG-_hdHOIYb3zTWt-13" value="" style="html=1;points=[];perimeter=orthogonalPerimeter;" parent="9vd5IG-_hdHOIYb3zTWt-12" vertex="1">
                    <mxGeometry x="45" y="380" width="10" height="150" as="geometry"/>
                </mxCell>
                <mxCell id="9vd5IG-_hdHOIYb3zTWt-14" value="Read Ticket" style="html=1;verticalAlign=bottom;endArrow=open;dashed=1;endSize=8;" parent="V4IsUhxSaCDauvAcyeti-1" edge="1">
                    <mxGeometry relative="1" as="geometry">
                        <mxPoint x="209.32352941176464" y="1160" as="targetPoint"/>
                        <mxPoint x="694.5" y="1160" as="sourcePoint"/>
                    </mxGeometry>
                </mxCell>
                <mxCell id="9vd5IG-_hdHOIYb3zTWt-15" value="Delete Ticket" style="html=1;verticalAlign=bottom;endArrow=block;entryX=0.021;entryY=0.665;entryDx=0;entryDy=0;entryPerimeter=0;" parent="V4IsUhxSaCDauvAcyeti-1" edge="1">
                    <mxGeometry relative="1" as="geometry">
                        <mxPoint x="210" y="1200" as="sourcePoint"/>
                        <mxPoint x="695.21" y="1199.7499999999998" as="targetPoint"/>
                    </mxGeometry>
                </mxCell>
                <mxCell id="9vd5IG-_hdHOIYb3zTWt-16" value="Read Ticket" style="html=1;verticalAlign=bottom;endArrow=open;dashed=1;endSize=8;" parent="V4IsUhxSaCDauvAcyeti-1" edge="1">
                    <mxGeometry relative="1" as="geometry">
                        <mxPoint x="210.00034482758633" y="1078.82" as="targetPoint"/>
                        <mxPoint x="694.69" y="1078.82" as="sourcePoint"/>
                    </mxGeometry>
                </mxCell>
                <mxCell id="9vd5IG-_hdHOIYb3zTWt-17" value="Admin" style="text;html=1;align=center;verticalAlign=middle;resizable=0;points=[];autosize=1;" parent="V4IsUhxSaCDauvAcyeti-1" vertex="1">
                    <mxGeometry x="185" y="660" width="50" height="20" as="geometry"/>
                </mxCell>
                <mxCell id="-dRMRCbmCCnEA8AZdlib-0" value="Login" style="html=1;verticalAlign=bottom;endArrow=block;entryX=-0.016;entryY=0.099;entryDx=0;entryDy=0;entryPerimeter=0;" parent="V4IsUhxSaCDauvAcyeti-1" source="-dRMRCbmCCnEA8AZdlib-4" target="-dRMRCbmCCnEA8AZdlib-3" edge="1">
                    <mxGeometry relative="1" as="geometry">
                        <mxPoint x="280" y="1460" as="sourcePoint"/>
                    </mxGeometry>
                </mxCell>
                <mxCell id="-dRMRCbmCCnEA8AZdlib-1" value="Login OK" style="html=1;verticalAlign=bottom;endArrow=open;dashed=1;endSize=8;" parent="V4IsUhxSaCDauvAcyeti-1" target="-dRMRCbmCCnEA8AZdlib-4" edge="1">
                    <mxGeometry relative="1" as="geometry">
                        <mxPoint x="280" y="1536" as="targetPoint"/>
                        <mxPoint x="504" y="1555" as="sourcePoint"/>
                    </mxGeometry>
                </mxCell>
                <mxCell id="-dRMRCbmCCnEA8AZdlib-2" value="Interface" style="shape=umlLifeline;perimeter=lifelinePerimeter;whiteSpace=wrap;html=1;container=1;collapsible=0;recursiveResize=0;outlineConnect=0;" parent="V4IsUhxSaCDauvAcyeti-1" vertex="1">
                    <mxGeometry x="460" y="1320" width="100" height="480" as="geometry"/>
                </mxCell>
                <mxCell id="-dRMRCbmCCnEA8AZdlib-3" value="" style="html=1;points=[];perimeter=orthogonalPerimeter;" parent="-dRMRCbmCCnEA8AZdlib-2" vertex="1">
                    <mxGeometry x="45" y="90" width="10" height="370" as="geometry"/>
                </mxCell>
                <mxCell id="-dRMRCbmCCnEA8AZdlib-4" value="" style="shape=umlLifeline;participant=umlActor;perimeter=lifelinePerimeter;whiteSpace=wrap;html=1;container=1;collapsible=0;recursiveResize=0;verticalAlign=top;spacingTop=36;outlineConnect=0;" parent="V4IsUhxSaCDauvAcyeti-1" vertex="1">
                    <mxGeometry x="200" y="1325" width="20" height="475" as="geometry"/>
                </mxCell>
                <mxCell id="-dRMRCbmCCnEA8AZdlib-5" value="Verification" style="shape=umlFrame;tabWidth=110;tabHeight=30;tabPosition=left;html=1;boundedLbl=1;labelInHeader=1;width=140;height=30;" parent="V4IsUhxSaCDauvAcyeti-1" vertex="1">
                    <mxGeometry x="70" y="1480" width="530" height="190" as="geometry"/>
                </mxCell>
                <mxCell id="-dRMRCbmCCnEA8AZdlib-6" value="[Password VALID]" style="text" parent="-dRMRCbmCCnEA8AZdlib-5" vertex="1">
                    <mxGeometry width="100" height="20" relative="1" as="geometry">
                        <mxPoint x="20" y="40" as="offset"/>
                    </mxGeometry>
                </mxCell>
                <mxCell id="-dRMRCbmCCnEA8AZdlib-7" value="[Password INVALID]" style="line;strokeWidth=1;dashed=1;labelPosition=center;verticalLabelPosition=bottom;align=left;verticalAlign=top;spacingLeft=20;spacingTop=15;" parent="-dRMRCbmCCnEA8AZdlib-5" vertex="1">
                    <mxGeometry y="95" width="530" height="7.599999999999999" as="geometry"/>
                </mxCell>
                <mxCell id="-dRMRCbmCCnEA8AZdlib-8" value="Re-Login" style="html=1;verticalAlign=bottom;endArrow=block;entryX=0.822;entryY=0.842;entryDx=0;entryDy=0;entryPerimeter=0;" parent="V4IsUhxSaCDauvAcyeti-1" target="-dRMRCbmCCnEA8AZdlib-5" edge="1">
                    <mxGeometry relative="1" as="geometry">
                        <mxPoint x="210" y="1640" as="sourcePoint"/>
                        <mxPoint x="500" y="1640" as="targetPoint"/>
                    </mxGeometry>
                </mxCell>
                <mxCell id="-dRMRCbmCCnEA8AZdlib-9" value="Resolve Ticket" style="html=1;verticalAlign=bottom;endArrow=block;entryX=0.021;entryY=0.138;entryDx=0;entryDy=0;entryPerimeter=0;" parent="V4IsUhxSaCDauvAcyeti-1" edge="1">
                    <mxGeometry relative="1" as="geometry">
                        <mxPoint x="210" y="1760" as="sourcePoint"/>
                        <mxPoint x="695.21" y="1760.6999999999998" as="targetPoint"/>
                    </mxGeometry>
                </mxCell>
                <mxCell id="-dRMRCbmCCnEA8AZdlib-10" value="App" style="shape=umlLifeline;perimeter=lifelinePerimeter;whiteSpace=wrap;html=1;container=1;collapsible=0;recursiveResize=0;outlineConnect=0;" parent="V4IsUhxSaCDauvAcyeti-1" vertex="1">
                    <mxGeometry x="650" y="1320" width="100" height="480" as="geometry"/>
                </mxCell>
                <mxCell id="-dRMRCbmCCnEA8AZdlib-11" value="" style="html=1;points=[];perimeter=orthogonalPerimeter;" parent="-dRMRCbmCCnEA8AZdlib-10" vertex="1">
                    <mxGeometry x="45" y="380" width="10" height="80" as="geometry"/>
                </mxCell>
                <mxCell id="-dRMRCbmCCnEA8AZdlib-14" value="Read Ticket" style="html=1;verticalAlign=bottom;endArrow=open;dashed=1;endSize=8;" parent="V4IsUhxSaCDauvAcyeti-1" edge="1">
                    <mxGeometry relative="1" as="geometry">
                        <mxPoint x="210.00034482758656" y="1718.8199999999997" as="targetPoint"/>
                        <mxPoint x="694.69" y="1718.8199999999997" as="sourcePoint"/>
                    </mxGeometry>
                </mxCell>
                <mxCell id="-dRMRCbmCCnEA8AZdlib-15" value="Technician / Developer" style="text;html=1;align=center;verticalAlign=middle;resizable=0;points=[];autosize=1;" parent="V4IsUhxSaCDauvAcyeti-1" vertex="1">
                    <mxGeometry x="140" y="1300" width="140" height="20" as="geometry"/>
                </mxCell>
            </root>
        </mxGraphModel>
    </diagram>
    <diagram id="91VmjFWpfDvLUIB1yrEZ" name="Activity">
        <mxGraphModel dx="3570" dy="2875" grid="1" gridSize="10" guides="1" tooltips="1" connect="1" arrows="1" fold="1" page="1" pageScale="1" pageWidth="827" pageHeight="1169" math="0" shadow="0">
            <root>
                <mxCell id="WhXccJDfn9mS8rTSriA7-0"/>
                <mxCell id="WhXccJDfn9mS8rTSriA7-1" parent="WhXccJDfn9mS8rTSriA7-0"/>
                <mxCell id="PDT3fH9a8Or61EbFZ4sl-0" style="edgeStyle=orthogonalEdgeStyle;rounded=0;orthogonalLoop=1;jettySize=auto;html=1;exitX=0.5;exitY=1;exitDx=0;exitDy=0;" parent="WhXccJDfn9mS8rTSriA7-1" source="WhXccJDfn9mS8rTSriA7-2" target="PDT3fH9a8Or61EbFZ4sl-1" edge="1">
                    <mxGeometry relative="1" as="geometry">
                        <mxPoint x="402" y="190" as="targetPoint"/>
                    </mxGeometry>
                </mxCell>
                <mxCell id="WhXccJDfn9mS8rTSriA7-2" value="" style="ellipse;fillColor=#000000;strokeColor=none;" parent="WhXccJDfn9mS8rTSriA7-1" vertex="1">
                    <mxGeometry x="387" y="70" width="30" height="30" as="geometry"/>
                </mxCell>
                <mxCell id="PDT3fH9a8Or61EbFZ4sl-2" style="edgeStyle=orthogonalEdgeStyle;rounded=0;orthogonalLoop=1;jettySize=auto;html=1;" parent="WhXccJDfn9mS8rTSriA7-1" source="PDT3fH9a8Or61EbFZ4sl-1" target="PDT3fH9a8Or61EbFZ4sl-3" edge="1">
                    <mxGeometry relative="1" as="geometry">
                        <mxPoint x="402" y="280" as="targetPoint"/>
                    </mxGeometry>
                </mxCell>
                <mxCell id="PDT3fH9a8Or61EbFZ4sl-1" value="Login into the app" style="html=1;align=center;verticalAlign=top;rounded=1;absoluteArcSize=1;arcSize=10;dashed=0;" parent="WhXccJDfn9mS8rTSriA7-1" vertex="1">
                    <mxGeometry x="332" y="170" width="140" height="30" as="geometry"/>
                </mxCell>
                <mxCell id="PDT3fH9a8Or61EbFZ4sl-4" style="edgeStyle=orthogonalEdgeStyle;rounded=0;orthogonalLoop=1;jettySize=auto;html=1;" parent="WhXccJDfn9mS8rTSriA7-1" source="PDT3fH9a8Or61EbFZ4sl-3" target="PDT3fH9a8Or61EbFZ4sl-7" edge="1">
                    <mxGeometry relative="1" as="geometry">
                        <mxPoint x="548" y="312.5" as="targetPoint"/>
                    </mxGeometry>
                </mxCell>
                <mxCell id="Ec80zQffT3CPN_tHbDJI-0" style="edgeStyle=orthogonalEdgeStyle;rounded=0;orthogonalLoop=1;jettySize=auto;html=1;entryX=0.508;entryY=-0.043;entryDx=0;entryDy=0;entryPerimeter=0;" edge="1" parent="WhXccJDfn9mS8rTSriA7-1" source="PDT3fH9a8Or61EbFZ4sl-3" target="PDT3fH9a8Or61EbFZ4sl-10">
                    <mxGeometry relative="1" as="geometry"/>
                </mxCell>
                <mxCell id="PDT3fH9a8Or61EbFZ4sl-3" value="Check Login&#10;Credentials" style="rhombus;" parent="WhXccJDfn9mS8rTSriA7-1" vertex="1">
                    <mxGeometry x="337" y="263.75" width="130" height="85" as="geometry"/>
                </mxCell>
                <mxCell id="PDT3fH9a8Or61EbFZ4sl-8" style="edgeStyle=orthogonalEdgeStyle;rounded=0;orthogonalLoop=1;jettySize=auto;html=1;exitX=0.5;exitY=0;exitDx=0;exitDy=0;entryX=1;entryY=0.5;entryDx=0;entryDy=0;" parent="WhXccJDfn9mS8rTSriA7-1" source="PDT3fH9a8Or61EbFZ4sl-7" target="PDT3fH9a8Or61EbFZ4sl-1" edge="1">
                    <mxGeometry relative="1" as="geometry">
                        <mxPoint x="628" y="180" as="targetPoint"/>
                    </mxGeometry>
                </mxCell>
                <mxCell id="PDT3fH9a8Or61EbFZ4sl-7" value="Invalid Credentials" style="html=1;align=center;verticalAlign=top;rounded=1;absoluteArcSize=1;arcSize=10;dashed=0;" parent="WhXccJDfn9mS8rTSriA7-1" vertex="1">
                    <mxGeometry x="539" y="292.5" width="140" height="27.5" as="geometry"/>
                </mxCell>
                <mxCell id="PDT3fH9a8Or61EbFZ4sl-11" style="edgeStyle=orthogonalEdgeStyle;rounded=0;orthogonalLoop=1;jettySize=auto;html=1;" parent="WhXccJDfn9mS8rTSriA7-1" source="PDT3fH9a8Or61EbFZ4sl-10" target="PDT3fH9a8Or61EbFZ4sl-12" edge="1">
                    <mxGeometry relative="1" as="geometry">
                        <mxPoint x="228" y="550" as="targetPoint"/>
                    </mxGeometry>
                </mxCell>
                <mxCell id="PDT3fH9a8Or61EbFZ4sl-17" style="edgeStyle=orthogonalEdgeStyle;rounded=0;orthogonalLoop=1;jettySize=auto;html=1;entryX=0.5;entryY=0;entryDx=0;entryDy=0;" parent="WhXccJDfn9mS8rTSriA7-1" target="PDT3fH9a8Or61EbFZ4sl-15" edge="1">
                    <mxGeometry relative="1" as="geometry">
                        <mxPoint x="400" y="450" as="sourcePoint"/>
                        <mxPoint x="440" y="510" as="targetPoint"/>
                        <Array as="points">
                            <mxPoint x="400" y="440"/>
                            <mxPoint x="400" y="490"/>
                            <mxPoint x="400" y="490"/>
                        </Array>
                    </mxGeometry>
                </mxCell>
                <mxCell id="PDT3fH9a8Or61EbFZ4sl-18" style="edgeStyle=orthogonalEdgeStyle;rounded=0;orthogonalLoop=1;jettySize=auto;html=1;entryX=0.5;entryY=0;entryDx=0;entryDy=0;" parent="WhXccJDfn9mS8rTSriA7-1" source="PDT3fH9a8Or61EbFZ4sl-10" target="PDT3fH9a8Or61EbFZ4sl-16" edge="1">
                    <mxGeometry relative="1" as="geometry"/>
                </mxCell>
                <mxCell id="PDT3fH9a8Or61EbFZ4sl-10" value="View Dashboard" style="html=1;align=center;verticalAlign=top;rounded=1;absoluteArcSize=1;arcSize=10;dashed=0;" parent="WhXccJDfn9mS8rTSriA7-1" vertex="1">
                    <mxGeometry x="330" y="410" width="142" height="30" as="geometry"/>
                </mxCell>
                <mxCell id="PDT3fH9a8Or61EbFZ4sl-20" style="edgeStyle=orthogonalEdgeStyle;rounded=0;orthogonalLoop=1;jettySize=auto;html=1;entryX=0;entryY=0.5;entryDx=0;entryDy=0;exitX=0.5;exitY=1;exitDx=0;exitDy=0;" parent="WhXccJDfn9mS8rTSriA7-1" source="PDT3fH9a8Or61EbFZ4sl-12" target="PDT3fH9a8Or61EbFZ4sl-19" edge="1">
                    <mxGeometry relative="1" as="geometry">
                        <mxPoint x="98" y="710" as="targetPoint"/>
                    </mxGeometry>
                </mxCell>
                <mxCell id="PDT3fH9a8Or61EbFZ4sl-12" value="Create Ticket" style="html=1;align=center;verticalAlign=top;rounded=1;absoluteArcSize=1;arcSize=10;dashed=0;" parent="WhXccJDfn9mS8rTSriA7-1" vertex="1">
                    <mxGeometry x="129" y="540" width="140" height="30" as="geometry"/>
                </mxCell>
                <mxCell id="PDT3fH9a8Or61EbFZ4sl-21" style="edgeStyle=orthogonalEdgeStyle;rounded=0;orthogonalLoop=1;jettySize=auto;html=1;entryX=0.5;entryY=0;entryDx=0;entryDy=0;exitX=0.5;exitY=1;exitDx=0;exitDy=0;" parent="WhXccJDfn9mS8rTSriA7-1" source="PDT3fH9a8Or61EbFZ4sl-15" target="PDT3fH9a8Or61EbFZ4sl-19" edge="1">
                    <mxGeometry relative="1" as="geometry"/>
                </mxCell>
                <mxCell id="PDT3fH9a8Or61EbFZ4sl-15" value="View Ticket" style="html=1;align=center;verticalAlign=top;rounded=1;absoluteArcSize=1;arcSize=10;dashed=0;" parent="WhXccJDfn9mS8rTSriA7-1" vertex="1">
                    <mxGeometry x="329" y="540" width="141" height="30" as="geometry"/>
                </mxCell>
                <mxCell id="PDT3fH9a8Or61EbFZ4sl-22" style="edgeStyle=orthogonalEdgeStyle;rounded=0;orthogonalLoop=1;jettySize=auto;html=1;entryX=1;entryY=0.5;entryDx=0;entryDy=0;exitX=0.5;exitY=1;exitDx=0;exitDy=0;" parent="WhXccJDfn9mS8rTSriA7-1" source="PDT3fH9a8Or61EbFZ4sl-16" target="PDT3fH9a8Or61EbFZ4sl-19" edge="1">
                    <mxGeometry relative="1" as="geometry">
                        <Array as="points">
                            <mxPoint x="609" y="665"/>
                        </Array>
                    </mxGeometry>
                </mxCell>
                <mxCell id="PDT3fH9a8Or61EbFZ4sl-16" value="Edit Ticket" style="html=1;align=center;verticalAlign=top;rounded=1;absoluteArcSize=1;arcSize=10;dashed=0;" parent="WhXccJDfn9mS8rTSriA7-1" vertex="1">
                    <mxGeometry x="539" y="540" width="140" height="30" as="geometry"/>
                </mxCell>
                <mxCell id="PDT3fH9a8Or61EbFZ4sl-19" value="" style="ellipse;html=1;shape=endState;fillColor=#000000;strokeColor=#000000;" parent="WhXccJDfn9mS8rTSriA7-1" vertex="1">
                    <mxGeometry x="384" y="650" width="30" height="30" as="geometry"/>
                </mxCell>
                <mxCell id="Qo_bsnH97igwvBzEMqOK-0" value="User" style="text;html=1;align=center;verticalAlign=middle;resizable=0;points=[];autosize=1;" parent="WhXccJDfn9mS8rTSriA7-1" vertex="1">
                    <mxGeometry x="384" y="40" width="40" height="20" as="geometry"/>
                </mxCell>
                <mxCell id="Qo_bsnH97igwvBzEMqOK-1" style="edgeStyle=orthogonalEdgeStyle;rounded=0;orthogonalLoop=1;jettySize=auto;html=1;exitX=0.5;exitY=1;exitDx=0;exitDy=0;" parent="WhXccJDfn9mS8rTSriA7-1" source="Qo_bsnH97igwvBzEMqOK-2" target="Qo_bsnH97igwvBzEMqOK-4" edge="1">
                    <mxGeometry relative="1" as="geometry">
                        <mxPoint x="402" y="910" as="targetPoint"/>
                    </mxGeometry>
                </mxCell>
                <mxCell id="Qo_bsnH97igwvBzEMqOK-2" value="" style="ellipse;fillColor=#000000;strokeColor=none;" parent="WhXccJDfn9mS8rTSriA7-1" vertex="1">
                    <mxGeometry x="387" y="790" width="30" height="30" as="geometry"/>
                </mxCell>
                <mxCell id="Qo_bsnH97igwvBzEMqOK-3" style="edgeStyle=orthogonalEdgeStyle;rounded=0;orthogonalLoop=1;jettySize=auto;html=1;" parent="WhXccJDfn9mS8rTSriA7-1" source="Qo_bsnH97igwvBzEMqOK-4" target="Qo_bsnH97igwvBzEMqOK-7" edge="1">
                    <mxGeometry relative="1" as="geometry">
                        <mxPoint x="402" y="1000" as="targetPoint"/>
                    </mxGeometry>
                </mxCell>
                <mxCell id="Qo_bsnH97igwvBzEMqOK-4" value="Login into the app" style="html=1;align=center;verticalAlign=top;rounded=1;absoluteArcSize=1;arcSize=10;dashed=0;" parent="WhXccJDfn9mS8rTSriA7-1" vertex="1">
                    <mxGeometry x="332" y="890" width="140" height="30" as="geometry"/>
                </mxCell>
                <mxCell id="Qo_bsnH97igwvBzEMqOK-5" style="edgeStyle=orthogonalEdgeStyle;rounded=0;orthogonalLoop=1;jettySize=auto;html=1;" parent="WhXccJDfn9mS8rTSriA7-1" source="Qo_bsnH97igwvBzEMqOK-7" target="Qo_bsnH97igwvBzEMqOK-9" edge="1">
                    <mxGeometry relative="1" as="geometry">
                        <mxPoint x="548" y="1032.5" as="targetPoint"/>
                    </mxGeometry>
                </mxCell>
                <mxCell id="Ec80zQffT3CPN_tHbDJI-1" style="edgeStyle=orthogonalEdgeStyle;rounded=0;orthogonalLoop=1;jettySize=auto;html=1;entryX=0.507;entryY=0;entryDx=0;entryDy=0;entryPerimeter=0;" edge="1" parent="WhXccJDfn9mS8rTSriA7-1" source="Qo_bsnH97igwvBzEMqOK-7" target="Qo_bsnH97igwvBzEMqOK-13">
                    <mxGeometry relative="1" as="geometry">
                        <mxPoint x="402" y="1120" as="targetPoint"/>
                    </mxGeometry>
                </mxCell>
                <mxCell id="Qo_bsnH97igwvBzEMqOK-7" value="Check Login&#10;Credentials" style="rhombus;" parent="WhXccJDfn9mS8rTSriA7-1" vertex="1">
                    <mxGeometry x="337" y="983.75" width="130" height="85" as="geometry"/>
                </mxCell>
                <mxCell id="Qo_bsnH97igwvBzEMqOK-8" style="edgeStyle=orthogonalEdgeStyle;rounded=0;orthogonalLoop=1;jettySize=auto;html=1;exitX=0.5;exitY=0;exitDx=0;exitDy=0;entryX=1;entryY=0.5;entryDx=0;entryDy=0;" parent="WhXccJDfn9mS8rTSriA7-1" source="Qo_bsnH97igwvBzEMqOK-9" target="Qo_bsnH97igwvBzEMqOK-4" edge="1">
                    <mxGeometry relative="1" as="geometry">
                        <mxPoint x="628" y="900" as="targetPoint"/>
                    </mxGeometry>
                </mxCell>
                <mxCell id="Qo_bsnH97igwvBzEMqOK-9" value="Invalid Credentials" style="html=1;align=center;verticalAlign=top;rounded=1;absoluteArcSize=1;arcSize=10;dashed=0;" parent="WhXccJDfn9mS8rTSriA7-1" vertex="1">
                    <mxGeometry x="539" y="1012.5" width="140" height="27.5" as="geometry"/>
                </mxCell>
                <mxCell id="Qo_bsnH97igwvBzEMqOK-10" style="edgeStyle=orthogonalEdgeStyle;rounded=0;orthogonalLoop=1;jettySize=auto;html=1;" parent="WhXccJDfn9mS8rTSriA7-1" source="Qo_bsnH97igwvBzEMqOK-13" target="Qo_bsnH97igwvBzEMqOK-15" edge="1">
                    <mxGeometry relative="1" as="geometry">
                        <mxPoint x="228" y="1270" as="targetPoint"/>
                    </mxGeometry>
                </mxCell>
                <mxCell id="Qo_bsnH97igwvBzEMqOK-11" style="edgeStyle=orthogonalEdgeStyle;rounded=0;orthogonalLoop=1;jettySize=auto;html=1;entryX=0.5;entryY=0;entryDx=0;entryDy=0;" parent="WhXccJDfn9mS8rTSriA7-1" target="Qo_bsnH97igwvBzEMqOK-17" edge="1">
                    <mxGeometry relative="1" as="geometry">
                        <mxPoint x="400" y="1170" as="sourcePoint"/>
                        <mxPoint x="440" y="1230" as="targetPoint"/>
                        <Array as="points">
                            <mxPoint x="400" y="1160"/>
                            <mxPoint x="400" y="1210"/>
                            <mxPoint x="400" y="1210"/>
                        </Array>
                    </mxGeometry>
                </mxCell>
                <mxCell id="Qo_bsnH97igwvBzEMqOK-12" style="edgeStyle=orthogonalEdgeStyle;rounded=0;orthogonalLoop=1;jettySize=auto;html=1;entryX=0.5;entryY=0;entryDx=0;entryDy=0;" parent="WhXccJDfn9mS8rTSriA7-1" source="Qo_bsnH97igwvBzEMqOK-13" target="Qo_bsnH97igwvBzEMqOK-19" edge="1">
                    <mxGeometry relative="1" as="geometry"/>
                </mxCell>
                <mxCell id="Qo_bsnH97igwvBzEMqOK-13" value="View Dashboard" style="html=1;align=center;verticalAlign=top;rounded=1;absoluteArcSize=1;arcSize=10;dashed=0;" parent="WhXccJDfn9mS8rTSriA7-1" vertex="1">
                    <mxGeometry x="330" y="1130" width="142" height="30" as="geometry"/>
                </mxCell>
                <mxCell id="Qo_bsnH97igwvBzEMqOK-14" style="edgeStyle=orthogonalEdgeStyle;rounded=0;orthogonalLoop=1;jettySize=auto;html=1;entryX=0;entryY=0.5;entryDx=0;entryDy=0;exitX=0.5;exitY=1;exitDx=0;exitDy=0;" parent="WhXccJDfn9mS8rTSriA7-1" source="Qo_bsnH97igwvBzEMqOK-15" target="Qo_bsnH97igwvBzEMqOK-20" edge="1">
                    <mxGeometry relative="1" as="geometry">
                        <mxPoint x="98" y="1430" as="targetPoint"/>
                    </mxGeometry>
                </mxCell>
                <mxCell id="Qo_bsnH97igwvBzEMqOK-15" value="View All Tickets" style="html=1;align=center;verticalAlign=top;rounded=1;absoluteArcSize=1;arcSize=10;dashed=0;" parent="WhXccJDfn9mS8rTSriA7-1" vertex="1">
                    <mxGeometry x="129" y="1260" width="140" height="30" as="geometry"/>
                </mxCell>
                <mxCell id="Qo_bsnH97igwvBzEMqOK-16" style="edgeStyle=orthogonalEdgeStyle;rounded=0;orthogonalLoop=1;jettySize=auto;html=1;entryX=0.5;entryY=0;entryDx=0;entryDy=0;exitX=0.5;exitY=1;exitDx=0;exitDy=0;" parent="WhXccJDfn9mS8rTSriA7-1" source="Qo_bsnH97igwvBzEMqOK-17" target="Qo_bsnH97igwvBzEMqOK-20" edge="1">
                    <mxGeometry relative="1" as="geometry"/>
                </mxCell>
                <mxCell id="Qo_bsnH97igwvBzEMqOK-17" value="Affect Ticket" style="html=1;align=center;verticalAlign=top;rounded=1;absoluteArcSize=1;arcSize=10;dashed=0;" parent="WhXccJDfn9mS8rTSriA7-1" vertex="1">
                    <mxGeometry x="329" y="1260" width="141" height="30" as="geometry"/>
                </mxCell>
                <mxCell id="Qo_bsnH97igwvBzEMqOK-18" style="edgeStyle=orthogonalEdgeStyle;rounded=0;orthogonalLoop=1;jettySize=auto;html=1;entryX=1;entryY=0.5;entryDx=0;entryDy=0;exitX=0.5;exitY=1;exitDx=0;exitDy=0;" parent="WhXccJDfn9mS8rTSriA7-1" source="Qo_bsnH97igwvBzEMqOK-19" target="Qo_bsnH97igwvBzEMqOK-20" edge="1">
                    <mxGeometry relative="1" as="geometry">
                        <Array as="points">
                            <mxPoint x="609" y="1385"/>
                        </Array>
                    </mxGeometry>
                </mxCell>
                <mxCell id="Qo_bsnH97igwvBzEMqOK-19" value="Delete Ticket" style="html=1;align=center;verticalAlign=top;rounded=1;absoluteArcSize=1;arcSize=10;dashed=0;" parent="WhXccJDfn9mS8rTSriA7-1" vertex="1">
                    <mxGeometry x="539" y="1260" width="140" height="30" as="geometry"/>
                </mxCell>
                <mxCell id="Qo_bsnH97igwvBzEMqOK-20" value="" style="ellipse;html=1;shape=endState;fillColor=#000000;strokeColor=#000000;" parent="WhXccJDfn9mS8rTSriA7-1" vertex="1">
                    <mxGeometry x="384" y="1370" width="30" height="30" as="geometry"/>
                </mxCell>
                <mxCell id="Qo_bsnH97igwvBzEMqOK-21" value="Admin" style="text;html=1;align=center;verticalAlign=middle;resizable=0;points=[];autosize=1;" parent="WhXccJDfn9mS8rTSriA7-1" vertex="1">
                    <mxGeometry x="379" y="760" width="50" height="20" as="geometry"/>
                </mxCell>
                <mxCell id="Qo_bsnH97igwvBzEMqOK-22" style="edgeStyle=orthogonalEdgeStyle;rounded=0;orthogonalLoop=1;jettySize=auto;html=1;exitX=0.5;exitY=1;exitDx=0;exitDy=0;" parent="WhXccJDfn9mS8rTSriA7-1" source="Qo_bsnH97igwvBzEMqOK-23" target="Qo_bsnH97igwvBzEMqOK-25" edge="1">
                    <mxGeometry relative="1" as="geometry">
                        <mxPoint x="402" y="1630" as="targetPoint"/>
                    </mxGeometry>
                </mxCell>
                <mxCell id="Qo_bsnH97igwvBzEMqOK-23" value="" style="ellipse;fillColor=#000000;strokeColor=none;" parent="WhXccJDfn9mS8rTSriA7-1" vertex="1">
                    <mxGeometry x="387" y="1510" width="30" height="30" as="geometry"/>
                </mxCell>
                <mxCell id="Qo_bsnH97igwvBzEMqOK-24" style="edgeStyle=orthogonalEdgeStyle;rounded=0;orthogonalLoop=1;jettySize=auto;html=1;" parent="WhXccJDfn9mS8rTSriA7-1" source="Qo_bsnH97igwvBzEMqOK-25" target="Qo_bsnH97igwvBzEMqOK-28" edge="1">
                    <mxGeometry relative="1" as="geometry">
                        <mxPoint x="402" y="1720" as="targetPoint"/>
                    </mxGeometry>
                </mxCell>
                <mxCell id="Qo_bsnH97igwvBzEMqOK-25" value="Login into the app" style="html=1;align=center;verticalAlign=top;rounded=1;absoluteArcSize=1;arcSize=10;dashed=0;" parent="WhXccJDfn9mS8rTSriA7-1" vertex="1">
                    <mxGeometry x="332" y="1610" width="140" height="30" as="geometry"/>
                </mxCell>
                <mxCell id="Qo_bsnH97igwvBzEMqOK-26" style="edgeStyle=orthogonalEdgeStyle;rounded=0;orthogonalLoop=1;jettySize=auto;html=1;" parent="WhXccJDfn9mS8rTSriA7-1" source="Qo_bsnH97igwvBzEMqOK-28" target="Qo_bsnH97igwvBzEMqOK-30" edge="1">
                    <mxGeometry relative="1" as="geometry">
                        <mxPoint x="548" y="1752.5" as="targetPoint"/>
                    </mxGeometry>
                </mxCell>
                <mxCell id="Qo_bsnH97igwvBzEMqOK-27" style="edgeStyle=orthogonalEdgeStyle;rounded=0;orthogonalLoop=1;jettySize=auto;html=1;" parent="WhXccJDfn9mS8rTSriA7-1" source="Qo_bsnH97igwvBzEMqOK-28" target="Qo_bsnH97igwvBzEMqOK-34" edge="1">
                    <mxGeometry relative="1" as="geometry">
                        <mxPoint x="402" y="1870" as="targetPoint"/>
                        <Array as="points">
                            <mxPoint x="402" y="1840"/>
                            <mxPoint x="402" y="1840"/>
                        </Array>
                    </mxGeometry>
                </mxCell>
                <mxCell id="Qo_bsnH97igwvBzEMqOK-28" value="Check Login&#10;Credentials" style="rhombus;" parent="WhXccJDfn9mS8rTSriA7-1" vertex="1">
                    <mxGeometry x="337" y="1703.75" width="130" height="85" as="geometry"/>
                </mxCell>
                <mxCell id="Qo_bsnH97igwvBzEMqOK-29" style="edgeStyle=orthogonalEdgeStyle;rounded=0;orthogonalLoop=1;jettySize=auto;html=1;exitX=0.5;exitY=0;exitDx=0;exitDy=0;entryX=1;entryY=0.5;entryDx=0;entryDy=0;" parent="WhXccJDfn9mS8rTSriA7-1" source="Qo_bsnH97igwvBzEMqOK-30" target="Qo_bsnH97igwvBzEMqOK-25" edge="1">
                    <mxGeometry relative="1" as="geometry">
                        <mxPoint x="628" y="1620" as="targetPoint"/>
                    </mxGeometry>
                </mxCell>
                <mxCell id="Qo_bsnH97igwvBzEMqOK-30" value="Invalid Credentials" style="html=1;align=center;verticalAlign=top;rounded=1;absoluteArcSize=1;arcSize=10;dashed=0;" parent="WhXccJDfn9mS8rTSriA7-1" vertex="1">
                    <mxGeometry x="539" y="1732.5" width="140" height="27.5" as="geometry"/>
                </mxCell>
                <mxCell id="Qo_bsnH97igwvBzEMqOK-31" style="edgeStyle=orthogonalEdgeStyle;rounded=0;orthogonalLoop=1;jettySize=auto;html=1;" parent="WhXccJDfn9mS8rTSriA7-1" source="Qo_bsnH97igwvBzEMqOK-34" target="Qo_bsnH97igwvBzEMqOK-36" edge="1">
                    <mxGeometry relative="1" as="geometry">
                        <mxPoint x="228" y="1990" as="targetPoint"/>
                    </mxGeometry>
                </mxCell>
                <mxCell id="Qo_bsnH97igwvBzEMqOK-33" style="edgeStyle=orthogonalEdgeStyle;rounded=0;orthogonalLoop=1;jettySize=auto;html=1;entryX=0.5;entryY=0;entryDx=0;entryDy=0;" parent="WhXccJDfn9mS8rTSriA7-1" source="Qo_bsnH97igwvBzEMqOK-34" target="Qo_bsnH97igwvBzEMqOK-40" edge="1">
                    <mxGeometry relative="1" as="geometry"/>
                </mxCell>
                <mxCell id="Qo_bsnH97igwvBzEMqOK-34" value="View Dashboard" style="html=1;align=center;verticalAlign=top;rounded=1;absoluteArcSize=1;arcSize=10;dashed=0;" parent="WhXccJDfn9mS8rTSriA7-1" vertex="1">
                    <mxGeometry x="330" y="1850" width="142" height="30" as="geometry"/>
                </mxCell>
                <mxCell id="Qo_bsnH97igwvBzEMqOK-35" style="edgeStyle=orthogonalEdgeStyle;rounded=0;orthogonalLoop=1;jettySize=auto;html=1;entryX=0;entryY=0.5;entryDx=0;entryDy=0;exitX=0.5;exitY=1;exitDx=0;exitDy=0;" parent="WhXccJDfn9mS8rTSriA7-1" source="Qo_bsnH97igwvBzEMqOK-36" target="Qo_bsnH97igwvBzEMqOK-41" edge="1">
                    <mxGeometry relative="1" as="geometry">
                        <mxPoint x="98" y="2150" as="targetPoint"/>
                    </mxGeometry>
                </mxCell>
                <mxCell id="Qo_bsnH97igwvBzEMqOK-36" value="View Alffected Tickets" style="html=1;align=center;verticalAlign=top;rounded=1;absoluteArcSize=1;arcSize=10;dashed=0;" parent="WhXccJDfn9mS8rTSriA7-1" vertex="1">
                    <mxGeometry x="129" y="1980" width="140" height="30" as="geometry"/>
                </mxCell>
                <mxCell id="Qo_bsnH97igwvBzEMqOK-39" style="edgeStyle=orthogonalEdgeStyle;rounded=0;orthogonalLoop=1;jettySize=auto;html=1;entryX=1;entryY=0.5;entryDx=0;entryDy=0;exitX=0.5;exitY=1;exitDx=0;exitDy=0;" parent="WhXccJDfn9mS8rTSriA7-1" source="Qo_bsnH97igwvBzEMqOK-40" target="Qo_bsnH97igwvBzEMqOK-41" edge="1">
                    <mxGeometry relative="1" as="geometry">
                        <Array as="points">
                            <mxPoint x="609" y="2105"/>
                        </Array>
                    </mxGeometry>
                </mxCell>
                <mxCell id="Qo_bsnH97igwvBzEMqOK-40" value="Resolve Ticket" style="html=1;align=center;verticalAlign=top;rounded=1;absoluteArcSize=1;arcSize=10;dashed=0;" parent="WhXccJDfn9mS8rTSriA7-1" vertex="1">
                    <mxGeometry x="539" y="1980" width="140" height="30" as="geometry"/>
                </mxCell>
                <mxCell id="Qo_bsnH97igwvBzEMqOK-41" value="" style="ellipse;html=1;shape=endState;fillColor=#000000;strokeColor=#000000;" parent="WhXccJDfn9mS8rTSriA7-1" vertex="1">
                    <mxGeometry x="384" y="2090" width="30" height="30" as="geometry"/>
                </mxCell>
                <mxCell id="Qo_bsnH97igwvBzEMqOK-42" value="Technician / Developer" style="text;html=1;align=center;verticalAlign=middle;resizable=0;points=[];autosize=1;" parent="WhXccJDfn9mS8rTSriA7-1" vertex="1">
                    <mxGeometry x="334" y="1480" width="140" height="20" as="geometry"/>
                </mxCell>
            </root>
        </mxGraphModel>
    </diagram>
</mxfile>